<?xml version="1.0" encoding="UTF-8" standalone="no"?>
<!-- Created with Inkscape (http://www.inkscape.org/) -->

<svg
   xmlns:dc="http://purl.org/dc/elements/1.1/"
   xmlns:cc="http://creativecommons.org/ns#"
   xmlns:rdf="http://www.w3.org/1999/02/22-rdf-syntax-ns#"
   xmlns:svg="http://www.w3.org/2000/svg"
   xmlns="http://www.w3.org/2000/svg"
   xmlns:sodipodi="http://sodipodi.sourceforge.net/DTD/sodipodi-0.dtd"
   xmlns:inkscape="http://www.inkscape.org/namespaces/inkscape"
   width="744.09448"
   height="1052.3622"
   id="svg3896"
   version="1.1"
   inkscape:version="0.48.0 r9654"
   sodipodi:docname="cbu-1.svg">
  <defs
     id="defs3" />
  <sodipodi:namedview
     inkscape:document-units="mm"
     id="base"
     pagecolor="#ffffff"
     bordercolor="#666666"
     borderopacity="1.0"
     inkscape:pageopacity="0.0"
     inkscape:pageshadow="2"
     inkscape:zoom="0.63"
     inkscape:cx="380.42998"
     inkscape:cy="496.29145"
     inkscape:current-layer="layer1"
     showgrid="true"
     units="mm"
     inkscape:window-width="1037"
     inkscape:window-height="731"
     inkscape:window-x="77"
     inkscape:window-y="20"
     inkscape:window-maximized="0">
    <inkscape:grid
       type="xygrid"
       id="grid3904"
       empspacing="5"
       visible="true"
       enabled="true"
       snapvisiblegridlinesonly="true" />
  </sodipodi:namedview>
  <metadata
     id="metadata4">
    <rdf:RDF>
      <cc:Work
         rdf:about="">
        <dc:format>image/svg+xml</dc:format>
        <dc:type
           rdf:resource="http://purl.org/dc/dcmitype/StillImage" />
        <dc:title></dc:title>
      </cc:Work>
    </rdf:RDF>
  </metadata>
  <g
     inkscape:label="Layer 1"
     inkscape:groupmode="layer"
     id="layer1"
     transform="translate(0,-2.5390623e-6)">
    <g
       id="g4505"
       transform="translate(-36,0)">
      <path
         sodipodi:nodetypes="cc"
         inkscape:connector-curvature="0"
         id="path3902"
         d="m 176.57481,23.858002 0,987.874398"
         style="fill:none;stroke:#bf3030;stroke-width:0.70876843;stroke-linecap:butt;stroke-linejoin:miter;stroke-miterlimit:4;stroke-opacity:1;stroke-dasharray:none" />
      <path
         sodipodi:nodetypes="ccccc"
         inkscape:connector-curvature="0"
         id="path4433"
         d="m 112.44095,392.36219 -17.362205,619.37011 162.283455,0 L 240,392.36219 z"
         style="fill:none;stroke:#000000;stroke-width:0.70866144;stroke-linecap:butt;stroke-linejoin:miter;stroke-miterlimit:4;stroke-opacity:1;stroke-dasharray:none" />
      <path
         sodipodi:nodetypes="cczccsccsc"
         inkscape:connector-curvature="0"
         id="path4435"
         d="M 75.555123,58.632249 C 81.33979,155.81467 85.2699,221.83343 91.181107,321.1417 c 0,0 13.086613,17.71654 16.629923,26.5748 3.54331,8.85827 4.62992,26.57481 4.62992,26.57481 l 127.55905,0 c 0,0 1.08662,-17.71654 4.62992,-26.57481 3.54331,-8.85826 16.62993,-26.5748 16.62993,-26.5748 L 276.88583,58.632249 c -34.25196,0 -66.41338,-35.128347 -100.66535,-35.128347 -34.25197,0 -66.41339,35.128347 -100.665357,35.128347 z"
         style="fill:none;stroke:#000000;stroke-width:0.70866144;stroke-linecap:butt;stroke-linejoin:miter;stroke-miterlimit:4;stroke-opacity:1;stroke-dasharray:none" />
    </g>
    <g
       id="g4500"
       transform="translate(102,0)">
      <path
         style="fill:none;stroke:#bf3030;stroke-width:0.70876843;stroke-linecap:butt;stroke-linejoin:miter;stroke-miterlimit:4;stroke-opacity:1;stroke-dasharray:none"
         d="m 496.57481,23.858002 0,987.874398"
         id="path4488"
         inkscape:connector-curvature="0"
         sodipodi:nodetypes="cc" />
      <path
         style="fill:none;stroke:#000000;stroke-width:0.70866144;stroke-linecap:butt;stroke-linejoin:miter;stroke-miterlimit:4;stroke-opacity:1;stroke-dasharray:none"
         d="m 432.44095,392.36219 -17.3622,619.37011 162.28345,0 L 560,392.36219 z"
         id="path4490"
         inkscape:connector-curvature="0"
         sodipodi:nodetypes="ccccc" />
      <path
         style="fill:none;stroke:#000000;stroke-width:0.70866144;stroke-linecap:butt;stroke-linejoin:miter;stroke-miterlimit:4;stroke-opacity:1;stroke-dasharray:none"
         d="m 395.55512,58.632249 c 5.78467,97.182421 9.71478,163.201181 15.62599,262.509451 0,0 13.08661,17.71654 16.62992,26.5748 3.54331,8.85827 4.62992,26.57481 4.62992,26.57481 l 127.55905,0 c 0,0 1.08662,-17.71654 4.62992,-26.57481 3.54331,-8.85826 16.62993,-26.5748 16.62993,-26.5748 L 596.88583,58.632249 c -34.25196,0 -66.41338,-35.128347 -100.66535,-35.128347 -34.25197,0 -66.41339,35.128347 -100.66536,35.128347 z"
         id="path4492"
         inkscape:connector-curvature="0"
         sodipodi:nodetypes="cczccsccsc" />
    </g>
  </g>
</svg>
