<?xml version="1.0" encoding="UTF-8" standalone="no"?>
<!-- Created with Inkscape (http://www.inkscape.org/) -->

<svg
   xmlns:dc="http://purl.org/dc/elements/1.1/"
   xmlns:cc="http://creativecommons.org/ns#"
   xmlns:rdf="http://www.w3.org/1999/02/22-rdf-syntax-ns#"
   xmlns:svg="http://www.w3.org/2000/svg"
   xmlns="http://www.w3.org/2000/svg"
   xmlns:sodipodi="http://sodipodi.sourceforge.net/DTD/sodipodi-0.dtd"
   xmlns:inkscape="http://www.inkscape.org/namespaces/inkscape"
   width="744.09448"
   height="1052.3622"
   id="svg2"
   version="1.1"
   inkscape:version="0.48.0 r9654"
   sodipodi:docname="head-1.svg">
  <defs
     id="defs4" />
  <sodipodi:namedview
     id="base"
     pagecolor="#ffffff"
     bordercolor="#666666"
     borderopacity="1.0"
     inkscape:pageopacity="0.0"
     inkscape:pageshadow="2"
     inkscape:zoom="0.7"
     inkscape:cx="370.21568"
     inkscape:cy="288.54697"
     inkscape:document-units="mm"
     inkscape:current-layer="layer1"
     showgrid="true"
     units="mm"
     inkscape:window-width="1020"
     inkscape:window-height="700"
     inkscape:window-x="57"
     inkscape:window-y="0"
     inkscape:window-maximized="0">
    <inkscape:grid
       type="xygrid"
       id="grid2985"
       empspacing="5"
       visible="true"
       enabled="true"
       snapvisiblegridlinesonly="true" />
  </sodipodi:namedview>
  <metadata
     id="metadata7">
    <rdf:RDF>
      <cc:Work
         rdf:about="">
        <dc:format>image/svg+xml</dc:format>
        <dc:type
           rdf:resource="http://purl.org/dc/dcmitype/StillImage" />
      </cc:Work>
    </rdf:RDF>
  </metadata>
  <g
     inkscape:label="Layer 1"
     inkscape:groupmode="layer"
     id="layer1"
     transform="translate(0,-2.5390623e-6)">
    <path
       style="fill:none;stroke:#000000;stroke-width:1px;stroke-linecap:butt;stroke-linejoin:miter;stroke-opacity:1"
       d="m 29.999606,672.36376 c 69.68504,0 135.826774,0 205.511814,0 l -19.48701,297.63623 -21.26103,53.14961 c -42.51968,0 -85.03937,0 -127.559049,0 L 45.945667,969.99999 z"
       id="path3030"
       inkscape:connector-curvature="0"
       sodipodi:nodetypes="ccccccc" />
    <path
       style="fill:none;stroke:#8a1b00;stroke-width:1.06141567px;stroke-linecap:butt;stroke-linejoin:miter;stroke-opacity:1"
       d="m 132.75551,672.92715 0,349.65705"
       id="path3032"
       inkscape:connector-curvature="0"
       sodipodi:nodetypes="cc" />
    <g
       id="g3806"
       transform="translate(270.02441,157.6378)">
      <g
         id="g3812"
         transform="translate(-56,0)">
        <path
           sodipodi:nodetypes="cccsccscc"
           inkscape:connector-curvature="0"
           id="path3808"
           d="m 53.975588,514.72596 c 69.685032,0 135.826772,0 205.511812,0 L 240,812.36219 c 0,0 -13.32226,17.42315 -16.9834,26.57598 -3.42548,8.56372 -4.27645,26.57365 -4.27645,26.57365 -42.51968,0 -85.03937,0 -127.559052,0 0,0 -1.086614,-17.71655 -4.629922,-26.57482 -3.543307,-8.85827 -16.629921,-26.57481 -16.629921,-26.57481 z"
           style="fill:none;stroke:#000000;stroke-width:1px;stroke-linecap:butt;stroke-linejoin:miter;stroke-opacity:1" />
        <path
           inkscape:connector-curvature="0"
           id="path3810"
           d="m 156.76693,515.28935 0,349.65708"
           style="fill:none;stroke:#8a1b00;stroke-width:1.06141567px;stroke-linecap:butt;stroke-linejoin:miter;stroke-opacity:1"
           sodipodi:nodetypes="cc" />
      </g>
    </g>
    <g
       id="g3818"
       transform="translate(470.02441,157.6378)">
      <g
         transform="translate(-4,0)"
         id="g3824">
        <path
           style="fill:none;stroke:#000000;stroke-width:1px;stroke-linecap:butt;stroke-linejoin:miter;stroke-opacity:1"
           d="m 156.73228,514.72439 c 34.84252,0 67.9126,20 102.75512,20 L 240,812.36219 c 0,0 -13.32226,17.42315 -16.9834,26.57598 -3.42548,8.56372 -4.27645,26.57365 -4.27645,26.57365 -42.51968,0 -85.04016,0 -127.559838,0 0,0 -1.085828,-17.71655 -4.629136,-26.57482 -3.543307,-8.85827 -16.629921,-26.57481 -16.629921,-26.57481 L 53.975588,534.72439 c 34.84252,0 67.914172,-20 102.756692,-20"
           id="path3820"
           inkscape:connector-curvature="0"
           sodipodi:nodetypes="cccsccsccc" />
        <path
           style="fill:none;stroke:#8a1b00;stroke-width:1.06141567px;stroke-linecap:butt;stroke-linejoin:miter;stroke-opacity:1"
           d="m 156.73149,515.28935 0,349.66063"
           id="path3822"
           inkscape:connector-curvature="0"
           sodipodi:nodetypes="cc" />
      </g>
    </g>
    <g
       transform="matrix(1,0,0,-1,16.49291,694.94642)"
       id="g3024">
      <path
         style="fill:none;stroke:#000000;stroke-width:1px;stroke-linecap:butt;stroke-linejoin:miter;stroke-opacity:1"
         d="m 14.715354,312.36376 c 69.68504,0 135.826776,0 205.511816,0 l -19.48701,297.63623 -21.26103,53.14961 c -42.51968,0 -85.039369,0 -127.559051,0 L 30.661415,609.99999 z"
         id="path3026"
         inkscape:connector-curvature="0"
         sodipodi:nodetypes="ccccccc" />
      <path
         style="fill:none;stroke:#8a1b00;stroke-width:1.06141567px;stroke-linecap:butt;stroke-linejoin:miter;stroke-opacity:1"
         d="m 117.47126,312.92715 0,349.65708"
         id="path3028"
         inkscape:connector-curvature="0"
         sodipodi:nodetypes="cc" />
      <g
         id="g3030"
         transform="translate(254.74016,-202.3622)">
        <g
           id="g3032"
           transform="translate(-56,0)">
          <path
             sodipodi:nodetypes="cccsccscc"
             inkscape:connector-curvature="0"
             id="path3034"
             d="m 53.975588,514.72596 c 69.685032,0 135.826772,0 205.511812,0 L 240,812.36219 c 0,0 -13.32226,17.42315 -16.9834,26.57598 -3.42548,8.56372 -4.27645,26.57365 -4.27645,26.57365 -42.51968,0 -85.03937,0 -127.559052,0 0,0 -1.086614,-17.71655 -4.629922,-26.57482 -3.543307,-8.85827 -16.629921,-26.57481 -16.629921,-26.57481 z"
             style="fill:none;stroke:#000000;stroke-width:1px;stroke-linecap:butt;stroke-linejoin:miter;stroke-opacity:1" />
          <path
             inkscape:connector-curvature="0"
             id="path3036"
             d="m 156.76693,515.28935 0,349.65708"
             style="fill:none;stroke:#8a1b00;stroke-width:1.06141567px;stroke-linecap:butt;stroke-linejoin:miter;stroke-opacity:1"
             sodipodi:nodetypes="cc" />
        </g>
      </g>
      <g
         id="g3038"
         transform="translate(454.74016,-202.3622)">
        <g
           transform="translate(-4,0)"
           id="g3040">
          <path
             style="fill:none;stroke:#000000;stroke-width:1px;stroke-linecap:butt;stroke-linejoin:miter;stroke-opacity:1"
             d="m 156.73228,514.72439 c 34.84252,0 67.9126,20 102.75512,20 L 240,812.36219 c 0,0 -13.32226,17.42315 -16.9834,26.57598 -3.42548,8.56372 -4.27645,26.57365 -4.27645,26.57365 -42.51968,0 -85.04016,0 -127.559838,0 0,0 -1.085828,-17.71655 -4.629136,-26.57482 -3.543307,-8.85827 -16.629921,-26.57481 -16.629921,-26.57481 L 53.975588,534.72439 c 34.84252,0 67.914172,-20 102.756692,-20"
             id="path3042"
             inkscape:connector-curvature="0"
             sodipodi:nodetypes="cccsccsccc" />
          <path
             style="fill:none;stroke:#8a1b00;stroke-width:1.06141567px;stroke-linecap:butt;stroke-linejoin:miter;stroke-opacity:1"
             d="m 156.73149,515.28935 0,349.66063"
             id="path3044"
             inkscape:connector-curvature="0"
             sodipodi:nodetypes="cc" />
        </g>
      </g>
    </g>
  </g>
</svg>
